<?xml version="1.0" encoding="utf-8"?>
<!-- Generator: Adobe Illustrator 17.1.0, SVG Export Plug-In . SVG Version: 6.00 Build 0)  -->
<!DOCTYPE svg PUBLIC "-//W3C//DTD SVG 1.1//EN" "http://www.w3.org/Graphics/SVG/1.1/DTD/svg11.dtd">
<svg version="1.1" id="Layer_1" xmlns="http://www.w3.org/2000/svg" xmlns:xlink="http://www.w3.org/1999/xlink" x="0px" y="0px"
	 viewBox="0 0 206.748 54.889" enable-background="new 0 0 206.748 54.889" xml:space="preserve">
<path fill="#FF6400" d="M145.703,19.253c-1.299,3.33-2.871,7.495-4.473,11.523c-2.598,6.533-5.137,13.234-5.762,14.807
	c-0.684-1.514-3.621-8.322-6.541-14.807c-1.865-4.135-3.645-8.369-5.07-11.523h-8.193l5.077,11.523l8.897,20.211
	c0.664,1.396,2.236,3.779,5.693,3.896c1.602,0.059,4.512-0.273,5.937-3.672l8.008-20.435l4.453-11.523H145.703z"/>
<path fill="#FF6400" d="M105.225,30.776v6.856c0,5.309-4.277,9.635-9.541,9.635c-5.273,0-9.561-4.326-9.561-9.635v-6.856V19.272
	h-7.476v11.503v6.856c0,9.439,7.642,17.105,17.036,17.105c9.375,0,17.012-7.666,17.012-17.105v-6.856V19.272h-7.471V30.776z"/>
<path fill="#FF6400" d="M17.895,18.794c-3.892,0-7.485,1.255-10.425,3.384V0H0v30.776v5.992c0,9.922,8.032,17.979,17.895,17.979
	c9.878,0,17.9-8.057,17.9-17.979c0-2.1-0.366-4.117-1.03-5.992C32.305,23.804,25.674,18.794,17.895,18.794z M17.895,47.276
	c-5.742,0-10.425-4.713-10.425-10.508c0-2.227,0.698-4.293,1.88-5.992c1.885-2.719,5.015-4.501,8.545-4.501
	c3.54,0,6.675,1.783,8.56,4.501c1.182,1.699,1.88,3.766,1.88,5.992C28.335,42.563,23.652,47.276,17.895,47.276z"/>
<path fill="#FF6400" d="M57.012,18.691c-7.803,0-14.458,5.063-16.894,12.084c-0.645,1.846-0.996,3.828-0.996,5.889
	c0,9.918,8.032,17.975,17.891,17.975c9.878,0,17.91-8.057,17.91-17.975c0-2.061-0.356-4.043-0.996-5.889
	C71.489,23.755,64.834,18.691,57.012,18.691z M57.012,47.178c-5.737,0-10.41-4.717-10.41-10.514c0-2.182,0.664-4.209,1.797-5.889
	c1.875-2.778,5.039-4.609,8.613-4.609c3.589,0,6.753,1.831,8.633,4.609c1.138,1.68,1.802,3.707,1.802,5.889
	C67.446,42.461,62.769,47.178,57.012,47.178z"/>
<path fill="#FF6400" d="M171.328,47.266c-5.732,0-10.41-4.713-10.41-10.508c0-2.223,0.693-4.287,1.865-5.982
	c1.885-2.725,5.02-4.516,8.545-4.516c2.549,0,4.854,0.938,6.66,2.465l-0.029,0.016l-3.525,2.035l-4.863,2.809l-0.01-0.01
	c-1.787,1.035-2.392,3.314-1.367,5.107c1.035,1.781,3.32,2.397,5.107,1.367l12.256-7.037l-0.02-0.01
	c0.879-0.508,1.475-1.318,1.729-2.227c0.264-0.938,0.166-1.967-0.361-2.871c-0.615-1.084-1.357-2.07-2.168-2.998l-0.049-0.049
	c-3.281-3.711-8.037-6.069-13.359-6.069c-7.764,0-14.394,5.015-16.865,11.987c-0.654,1.871-1.025,3.887-1.025,5.982
	c0,9.922,8.037,17.979,17.891,17.979c7.432,0,13.818-4.57,16.524-11.045l-6.875-2.965C179.424,44.561,175.693,47.266,171.328,47.266
	z"/>
<path fill="#FF6400" d="M199.658,0.107h-7.461v30.668v10.289c0.02,7.5,6.074,13.613,13.525,13.711c0.02,0,0.039,0,0.059,0h0.049
	c0.029,0,0.049,0,0.068,0c0.01,0,0.02,0,0.029,0h0.82v-7.471h-0.85c-3.428,0-6.23-2.812-6.24-6.26V30.776v-4.028h7.09v-7.476h-7.09
	V0.107z"/>
</svg>
